<?xml version="1.0" encoding="utf-8" ?>
<svg xmlns="http://www.w3.org/2000/svg" xmlns:xlink="http://www.w3.org/1999/xlink" width="274" height="302">
	<path fill="#8D1511" d="M51.5841 83.3642C61.4858 83.2438 71.3884 83.1974 81.2909 83.225C84.3504 83.2292 89.8994 82.7139 92.6439 83.4959C93.4109 83.7145 93.7051 84.2217 94.0936 84.881C97.1118 90.0026 98.798 96.5026 100.95 102.043C106.848 116.834 112.604 131.682 118.216 146.584C120.762 153.214 123.945 163.518 127.343 169.311C132.368 157.778 155.082 86.3057 159.419 83.9035C161.309 82.8567 193.22 83.0733 197.585 83.3044C198.592 83.3577 199.715 83.4741 200.664 83.8282C201.289 84.0616 201.534 84.3581 201.801 84.948C204.202 90.2497 192.225 90.2723 189.544 97.5885C188.379 100.769 188.812 105.267 188.842 108.651C188.9 115.103 189.499 121.038 189.86 127.393C190.018 130.169 189.927 132.973 190.028 135.756C190.199 140.487 190.534 145.213 190.717 149.944L191.854 176.682C192.093 182.905 192.019 189.157 192.61 195.366C192.773 197.084 193.01 198.946 193.766 200.512C195.302 203.694 200.528 204.715 203.588 205.748C204.884 206.186 206.268 206.745 206.882 208.065C207.55 209.5 207.202 211.268 206.709 212.701C206.626 212.737 206.544 212.775 206.46 212.808C204.433 213.612 152.912 213.268 152.557 213.1C152.275 212.966 151.982 212.41 151.906 212.121C151.528 210.678 152.31 208.475 153.077 207.263C153.623 206.398 154.507 206.292 155.437 206.077C158.103 205.172 161.337 204.394 163.323 202.297C164.206 201.366 164.683 200.404 164.901 199.141C166.046 192.514 165.287 184.989 165.166 178.254L164.085 135.232C164.022 132.139 164.177 119.329 162.218 117.45C160.978 117.431 159.335 122.707 158.876 123.93C153.448 138.379 146.635 152.265 141.195 166.696C137.278 177.085 133.631 187.586 129.873 198.034C128.5 201.852 127.444 205.986 125.814 209.687C125.284 210.89 124.599 212.12 123.457 212.837C121.558 214.03 119.385 213.426 117.358 212.967C114.779 208.184 113.453 202.331 111.555 197.217C109.477 191.618 107.444 185.977 105.271 180.415C103.984 177.12 100.496 169.768 100.126 166.6C99.7781 163.624 110.786 162.044 112.637 159.558C112.947 156.233 101.494 155.567 100.061 152.561C98.3079 148.883 103.398 133.758 104.864 129.432C100.737 130.337 90.6235 134.821 87.4365 134.606C83.6679 132.997 79.4444 115.167 76.1827 111.491C75.8256 111.088 75.7383 111.028 75.1972 110.995C74.0685 111.91 68.6151 124.048 67.511 126.5C66.3855 129.001 65.4026 132.248 63.5525 134.287C63.0898 134.465 62.9036 134.614 62.4189 134.396C60.993 133.754 60.3662 131.409 60.2414 130.019C59.9652 126.944 60.7108 123.777 61.0816 120.732C61.6918 115.72 63.4396 101.825 61.828 97.3055C59.3315 90.3043 51.2634 91.5803 46.5881 89.3301C45.9652 88.6443 45.772 87.8958 45.7335 86.988C45.6934 86.0428 45.7691 84.8431 46.4883 84.1397C47.5119 83.1387 50.2079 83.3968 51.5841 83.3642Z"/>
	<path fill="#4C4D4F" d="M131.161 3.1531C131.346 3.14668 131.579 3.12287 131.764 3.16796C132.282 3.29465 132.544 3.67341 132.756 4.13459C133.867 6.55242 134.269 9.92445 134.888 12.5422L139.132 30.4206L145.325 56.2281C146.113 59.551 147.105 62.876 147.749 66.2255C147.948 67.2604 148.184 68.7476 147.708 69.7402C146.877 71.4734 134.146 80.3595 131.856 81.1363C130.96 80.9821 130.271 80.6727 129.499 80.1963C127.907 79.2125 115.027 69.399 114.961 68.8018C114.733 66.7486 118.804 51.7486 119.589 48.5436L127.68 15.2423C128.456 12.0691 128.946 8.80093 129.863 5.66567C130.142 4.71114 130.58 3.95492 131.161 3.1531Z"/>
	<path fill="#4C4D4F" d="M124.439 229.752C124.571 229.768 124.704 229.784 124.836 229.803C125.713 229.932 126.399 230.198 127.161 230.649C129.402 231.977 138.421 238.798 139.803 240.649C139.969 241.37 139.859 242.059 139.744 242.78C138.927 247.92 137.397 253.006 136.119 258.05C134.818 263.181 133.692 268.364 132.43 273.508L128.524 289.52C127.881 292.221 127.454 295.037 126.643 297.69C126.431 298.383 126.233 299.017 125.624 299.459L124.976 300.022L124.504 299.869C124.295 299.58 124.108 299.281 123.959 298.957C123.101 297.099 122.815 294.741 122.34 292.741L119.213 279.431C116.349 267.413 112.978 255.419 110.453 243.332C110.281 242.511 109.953 241.152 110.275 240.366C111.304 237.847 121.745 230.862 124.439 229.752Z"/>
	<path fill="#8D1511" d="M236.024 119.828C239.351 119.711 242.478 119.759 245.78 120.224C245.822 124.292 245.846 128.344 245.704 132.41C245.602 135.33 245.212 138.534 245.462 141.438C245.518 142.08 245.67 142.566 246.069 143.089C246.401 143.525 247.172 143.724 247.695 143.787C249.357 143.985 251.203 143.77 252.886 143.756C257.637 143.718 262.456 143.552 267.184 144.09C267.559 147.574 267.444 150.902 267.199 154.384C260.841 155.864 253.186 154.11 246.658 154.858C243.925 155.171 247.129 172.662 244.642 175.691L244.51 175.849C241.138 176.291 237.276 176.038 233.877 175.854C233.44 172.77 233.667 169.538 233.679 166.432C233.664 162.578 233.618 158.724 233.54 154.871C230.102 154.558 226.565 154.73 223.113 154.711C219.672 154.693 216.225 154.502 212.789 154.34C212.497 151.656 211.913 146.48 212.938 144.02C214.572 142.764 230.449 143.287 233.692 143.125C233.793 139.544 233.31 122.48 234.039 120.611C234.609 120.086 235.292 119.996 236.024 119.828Z"/>
	<path fill="#8D1511" d="M89.291 153.007C89.5704 152.973 89.8381 152.963 90.1198 152.966C92.5113 152.993 107.684 157.837 109.196 159.421L109.073 159.766C105.54 160.928 92.8659 165.705 90.3243 165.797C86.7694 165.926 78.2574 159.176 75.9595 159.713C76.4365 161.637 88.6554 166.451 90.6641 168.388C92.315 169.98 98.0953 183.315 99.6648 186.394C97.4936 185.405 83.6674 177.586 82.3508 176.416C81.7346 175.868 81.4291 175.063 81.1158 174.32C79.9525 171.787 79.0071 169.14 77.8657 166.592C77.0081 164.678 75.5088 162.452 75.0498 160.44C75.2579 160.098 75.4862 159.816 75.4497 159.398C74.8954 159.318 74.8676 159.344 74.3993 159.587C73.4744 161.793 79.8039 173.126 80.242 176.42C80.3688 177.373 79.9623 178.6 79.6785 179.503C79.1797 181.088 73.1911 196.802 72.6036 197.279C72.4663 197.391 72.2894 197.442 72.1323 197.523C71.1978 196.703 65.7026 179.928 65.2637 177.614C67.1291 173.156 69.2791 168.863 71.3612 164.505C72.3737 162.386 73.202 160.221 74.3303 158.155C79.4749 156.988 84.2884 154.61 89.291 153.007Z"/>
	<path fill="#8D1511" d="M74.1906 122.12C74.319 122.216 74.6167 122.38 74.7011 122.5C75.1843 123.188 80.1618 138.915 80.4478 140.412C77.7695 146.031 74.5102 151.135 73.6922 157.456C76.2807 153.066 77.8371 148.056 80.3029 143.576C80.8097 142.655 81.7532 141.933 82.6305 141.386C84.6888 140.103 87.1557 139.261 89.3617 138.245C93.0089 136.565 96.7255 134.727 100.215 132.738C97.1239 137.77 94.06 145.906 90.15 150.016C89.5195 150.679 88.8046 151.255 87.99 151.677C86.5209 152.437 84.8142 152.871 83.2759 153.501C80.6822 154.563 78.3358 156.063 75.5682 156.698C74.0311 157.051 72.2385 156.973 70.6585 156.996C65.7619 154.683 60.7732 152.752 55.7543 150.739C51.6868 145.082 48.1889 137.759 44.5091 131.684C48.1841 133.778 52.0185 135.58 55.9765 137.073C58.962 138.225 62.1784 139.177 64.9493 140.793C67.2611 144.871 68.928 152.82 71.7645 155.972L72.021 155.865C71.979 152.05 67.6058 145.165 66.6206 140.82C66.104 138.541 72.6133 124.709 74.1906 122.12Z"/>
	<path fill="#8D1511" d="M61.9435 182.041C62.934 181.954 63.5315 182.002 64.3575 182.569C69.4113 186.038 67.4671 194.883 68.3893 200.028C70.344 210.934 81.1276 203.724 85.4008 207.03C86.0424 207.526 86.3208 208.275 86.3863 209.06C86.4664 210.02 86.3313 211.782 85.7013 212.519C82.836 214.113 70.1158 213.294 66.3347 213.28C62.0887 213.25 57.8426 213.255 53.5968 213.295C50.7202 213.341 47.7277 213.57 44.8588 213.353C44.4268 213.32 43.6654 213.303 43.3949 212.938C42.4323 211.636 42.8601 208.358 43.0625 206.807C45.4812 205.02 48.6476 204.792 50.8815 202.697C56.6984 197.241 55.2405 187.545 61.9435 182.041Z"/>
	<path fill="#8D1511" d="M31.1381 159.604C35.4565 157.742 39.9929 156.718 44.48 155.393C47.9398 154.371 51.3339 153.111 54.78 152.038C58.3156 153.235 61.7463 154.735 65.25 156.025C66.6281 156.427 71.4507 157.617 72.2563 158.474C72.0316 159.03 71.6754 159.725 71.8335 160.333C71.7001 161.853 70.188 163.873 69.4542 165.274C67.5692 168.874 66.1231 172.892 64.0751 176.362C63.5071 177.324 62.843 177.992 61.938 178.641C60.8962 179.388 47.8679 186.959 47.1365 187.153L46.8429 186.936C46.82 185.21 53.0661 169.797 54.2841 167.854C56.0789 166.907 69.2789 160.646 70.279 160.7C70.646 160.339 70.8634 160.077 71.0627 159.601C70.5122 159.29 70.0281 159.491 69.4157 159.579C69.4018 159.59 69.3892 159.604 69.3742 159.614C67.8833 160.631 65.7331 160.983 64.0848 161.799C61.5571 163.051 58.0213 165.114 55.2423 165.444C52.0946 165.818 36.6017 160.117 31.1381 159.604Z"/>
	<path fill="#4C4D4F" d="M38.3791 147.812C38.8252 147.779 39.4667 147.86 39.8885 148.009C40.4443 148.205 40.4488 148.281 40.6846 148.785C39.9755 152.329 32.3461 155.353 30.5413 158.448C29.138 160.854 38.5372 164.342 39.1775 167.32C39.0122 167.91 38.992 167.972 38.5199 168.356C34.8989 168.729 23.1182 164.681 18.9242 163.447C16.5599 162.86 2.91323 159.295 2.14311 158.063L2.351 157.623C4.05111 156.346 34.1756 148.661 38.3791 147.812Z"/>
</svg>
