<?xml version="1.0" encoding="utf-8" ?>
<svg xmlns="http://www.w3.org/2000/svg" xmlns:xlink="http://www.w3.org/1999/xlink" width="454" height="302">
	<path fill="#8F1512" d="M127.481 169.178C129.522 162.778 132.212 156.512 134.417 150.152C137.204 142.113 139.694 133.97 142.454 125.919C145.997 115.604 149.797 105.379 153.852 95.253C154.892 92.6199 156.823 86.1134 158.835 84.4125C159.791 83.6049 161.521 83.362 162.72 83.2407C167.751 82.7316 172.931 83.1563 177.985 83.1379C184.252 83.1152 190.568 82.7024 196.825 83.1582C198.538 83.283 200.91 83.4319 202.103 84.8154C204.083 89.6294 192.039 91.5122 189.782 97.4093C188.801 99.9728 188.876 103.07 188.88 105.784C188.895 116.547 190.143 127.266 190.509 138.019L191.692 169.448C191.957 178.072 191.978 186.774 192.675 195.37C192.809 197.023 193.057 198.72 193.741 200.245C195.306 203.737 199.769 204.19 202.974 205.422C204.65 206.066 206.656 207.035 207.369 208.815C207.865 210.053 207.522 211.219 207.057 212.388C206.789 212.556 206.508 212.7 206.207 212.795C205.086 213.148 203.776 213.295 202.605 213.338C199.991 213.434 197.338 213.228 194.719 213.223L179.524 213.321L162.162 213.295C159.871 213.308 157.558 213.548 155.274 213.49C154.422 213.468 153.444 213.327 152.691 212.902C152.207 212.629 151.847 212.206 151.702 211.666C151.311 210.209 152.352 208.411 153.039 207.186C156.224 205.324 160.117 205.046 162.839 202.359C166.299 198.943 165.215 190.714 165.189 186.025C165.081 173.325 164.633 160.635 164.357 147.939C164.231 142.107 163.944 136.307 163.678 130.481C163.513 126.863 163.543 122.967 162.906 119.404C162.777 118.684 162.66 117.877 162.041 117.454C161.111 118.171 160.615 119.634 160.158 120.698C158.206 125.242 156.758 129.995 154.854 134.566C150.722 144.486 146.185 154.308 142.244 164.295C140.164 169.564 138.36 174.976 136.444 180.309C134.468 185.81 132.417 191.288 130.499 196.808C129.033 201.027 127.457 207.761 125.029 211.332C124.244 212.509 123.02 213.321 121.63 213.588C120.481 213.807 118.447 213.838 117.469 213.128C116.611 212.506 115.802 210.025 115.401 209.011C112.824 202.487 110.833 195.668 108.4 189.073C107.257 185.913 106.046 182.778 104.77 179.671C102.887 175.116 100.725 170.656 100.005 165.736C101.165 163.908 110.267 161.182 113.015 159.305C109.888 156.03 101.074 154.862 99.942 152.484C98.0108 148.428 103.166 134.087 104.682 129.433C98.8406 131.462 93.0563 133.572 87.0277 134.99C83.6187 131.626 81.1512 122.603 79.2218 117.974C78.1432 115.387 76.9257 112.954 75.4781 110.554C74.378 112.439 73.2948 114.347 72.3541 116.317C70.6324 119.923 65.843 132.431 63.4255 134.313C62.978 134.662 62.7838 134.568 62.2534 134.508C60.8698 133.517 60.409 131.848 60.231 130.226C59.9234 127.423 60.3883 124.491 60.7226 121.709C61.4924 115.3 63.2588 104.815 62.0505 98.7777C60.3038 90.0499 51.581 92.5738 46.8285 89.3258C46.0659 88.8046 45.4906 88.0621 45.3612 87.1285C45.2416 86.2651 45.5042 85.1404 46.0954 84.4841C46.656 83.8616 47.3759 83.6283 48.175 83.499C52.0754 82.8678 56.3915 83.2129 60.3534 83.2097C68.0317 83.2432 75.7101 83.2179 83.388 83.134C86.1446 83.0511 89.3816 82.7301 92.0648 83.3935C93.2533 83.6874 93.8961 84.2276 94.5273 85.2511C97.7624 90.4962 99.5731 97.6864 101.778 103.52L117.997 145.4C120.973 153.188 123.233 162.017 127.481 169.178Z"/>
	<path fill="#8F1512" d="M256.304 110.854C261.865 110.448 267.658 110.999 273.243 111.065C284.316 111.197 301.254 109.488 311.175 114.833C316.312 117.6 320.304 122.009 321.991 127.636C324.012 134.38 323.673 142.606 320.3 148.867C315.053 158.603 303.959 162.783 293.376 163.052C290.404 163.128 285.06 162.642 282.403 163.438C281.28 165.646 281.835 177.416 281.873 180.312C281.89 183.421 281.927 186.442 282.513 189.503C285.498 191.689 289.119 191.766 292.642 192.439C292.875 194.74 292.761 196.574 292.232 198.804C285.695 199.542 278.659 199.18 272.071 199.185C266.905 199.188 260.072 199.683 255.092 198.724C254.803 198.487 254.702 198.26 254.57 197.92C254.071 196.634 254.131 194.807 254.76 193.574C255.763 191.605 259.18 191.888 261.036 191.323C261.779 191.097 262.695 190.576 263.021 189.835C263.91 187.815 263.766 184.029 263.826 181.831C263.981 176.121 263.578 170.411 263.556 164.703C263.53 157.928 264.412 124.061 262.729 120.808C261.548 118.524 258.175 118.379 255.998 117.636C255.167 117.352 254.655 117.012 254.298 116.175C253.811 115.032 253.953 113.398 254.465 112.282C254.866 111.408 255.455 111.157 256.304 110.854ZM281.829 120.273C281.548 127.277 281.599 134.202 281.748 141.208C281.838 145.462 282.284 150.025 281.808 154.234C286.656 154.176 292.075 154.419 296.696 152.773C299.644 151.484 301.653 149.641 302.856 146.608C304.918 141.407 304.647 133.304 302.377 128.195C300.9 124.869 298.281 122.13 294.842 120.842C292.538 119.979 290.169 119.889 287.743 119.862C285.798 119.985 283.751 119.989 281.829 120.273Z"/>
	<path fill="#8F1512" d="M329.144 111.124C335.799 110.826 342.484 111.167 349.142 111.196C355.686 111.225 362.293 110.668 368.784 111.735C372.827 112.384 376.727 113.729 380.31 115.712C385.483 118.615 388.885 122.811 390.493 128.551C392.416 135.412 391.813 143.79 388.225 150.034C382.635 159.759 371.479 162.856 360.96 163.097C358.562 163.152 354.167 162.748 352.073 163.488C349.183 164.509 351.886 182.216 350.567 185.371C351.2 186.517 350.979 187.966 351.507 189.169C352.867 192.27 357.856 191.342 360.514 192.434C360.572 192.458 360.629 192.484 360.686 192.509C360.805 192.77 360.908 193.037 360.968 193.319C361.244 194.601 361.152 196.858 360.335 197.967C359.821 198.663 359.266 198.82 358.44 198.917C353.29 199.522 347.658 198.995 342.454 199.018C337.043 199.041 331.323 199.619 325.954 199.045C324.946 198.937 323.83 198.715 323.037 198.039C322.38 197.48 322.098 196.666 322.054 195.823C321.735 189.723 328.682 193.358 331.109 190.385C331.774 189.57 331.9 188.255 331.992 187.247C332.326 183.576 332.215 179.817 332.224 176.132L332.263 158.188C332.321 149.666 332.6 141.148 332.393 132.624C332.316 129.454 332.366 126.136 331.914 122.994C331.014 116.731 327.363 119.735 323.77 116.938C322.984 116.326 322.137 115.306 322.068 114.274C322.031 113.711 322.248 113.238 322.613 112.82C324.177 111.028 326.988 111.243 329.144 111.124ZM365.548 152.812C367.743 152.313 369.362 151.043 370.571 149.162C373.462 144.664 373.443 137.027 372.272 131.954C371.351 127.964 369.295 124.056 365.726 121.85C362.727 119.996 359.049 119.699 355.601 119.875C354.184 119.927 352.538 119.827 351.195 120.301C350.081 121.768 351.067 149.161 350.556 154.025C351.905 154.738 363.76 153.648 365.295 152.967C365.385 152.927 365.464 152.864 365.548 152.812Z"/>
	<path fill="#8F1512" d="M216.349 110.599C220.242 110.089 224.695 110.505 228.625 110.577C235.051 110.693 241.516 110.638 247.926 111.113C247.921 112.476 248.055 114.053 247.496 115.32C246.327 117.968 242.261 118.319 239.794 119.265C238.917 121.562 238.659 123.926 238.52 126.365C238.006 135.38 238.423 144.64 238.444 153.675C238.468 163.357 238.113 173.243 238.699 182.898C238.81 184.715 238.863 187.359 239.717 188.98C241.279 191.946 245.352 191.062 247.328 193.461C248.452 194.825 248.135 196.46 247.976 198.072C246.734 198.673 245.693 198.959 244.312 199.047C239.444 199.272 216.505 199.883 213.112 198.366C212.6 198.137 212.361 197.652 212.186 197.133C211.836 196.097 211.471 194.452 212.023 193.432C212.862 191.881 216.154 192.523 217.686 192.031C218.756 191.687 219.554 190.964 220.043 189.964C220.516 188.997 220.687 187.863 220.733 186.798C220.873 183.511 220.696 180.132 220.662 176.839C220.586 170.525 220.542 164.211 220.531 157.897L220.539 136.994C220.558 132.662 220.72 128.288 220.52 123.962C220.448 122.387 220.307 121.015 219.767 119.517C217.65 118.605 215.16 118.518 213.176 117.312C212.262 116.757 211.538 115.959 211.31 114.884C211.13 114.038 211.216 112.794 211.765 112.091C212.793 110.775 214.825 110.726 216.349 110.599Z"/>
	<path fill="#4E4E4F" d="M131.283 2.85196C131.591 2.94066 131.925 3.04804 132.173 3.25955C132.987 3.95339 133.518 6.01927 133.802 7.05208C134.747 10.4963 135.333 14.0625 136.144 17.5432L141.688 40.7227L145.474 56.3864C146.452 60.4005 147.647 64.4426 147.958 68.5746C147.972 68.7668 147.998 68.9426 147.939 69.131C146.988 72.1892 135.154 79.4735 132.013 81.2289C129.024 80.7215 117.408 71.5424 114.948 68.9332C115.536 64.2895 116.772 59.6774 117.847 55.1241C119.538 47.9629 121.276 40.8128 123.06 33.6742L127.167 17.0299C128.014 13.4559 128.68 9.80562 129.742 6.28843C130.122 5.03025 130.584 3.96546 131.283 2.85196Z"/>
	<path fill="#8F1512" d="M420.065 126.625C422.271 126.53 425.297 126.239 427.363 127.063C427.38 127.431 427.656 127.719 427.724 128.088C427.892 129.01 427.965 130.004 428.011 130.939C428.08 132.354 427.739 150.121 427.653 150.384C431.794 150.8 436.105 150.721 440.263 150.71C442.907 150.703 446.151 150.372 448.712 151.098C449.389 151.598 449.607 152.261 449.733 153.06C450.033 154.961 450.096 159.967 448.952 161.554C445.931 162.879 438.419 161.912 434.938 161.884C432.497 161.864 430.048 161.966 427.608 162.042C427.716 162.304 427.815 162.581 427.833 162.866C427.975 165.225 428.078 181.133 427.205 182.085C426.135 183.252 424.392 183.162 422.937 183.218L415.155 183.127C415.247 182.943 415.228 182.991 415.311 182.754C415.881 181.113 415.754 163.731 414.913 161.989C408.306 161.65 400.525 161.349 393.966 161.681C394.872 159.91 394.546 153.099 394.108 150.991C400.962 149.413 408.122 150.391 415.091 150.032C417.225 146.848 413.599 130.46 416.305 127.531C417.125 126.643 418.924 126.721 420.065 126.625Z"/>
	<path fill="#4E4E4F" d="M124.297 229.792C128.628 230.535 137.142 237.553 139.981 240.948C139.826 246.196 137.962 251.674 136.62 256.741C135.686 260.361 134.787 263.991 133.923 267.629L129.642 285.398C128.468 290.394 127.519 295.428 125.65 300.225C125.375 300.19 125.087 300.161 124.833 300.037C124.254 299.755 123.944 299.051 123.74 298.477C122.781 295.777 122.278 292.798 121.626 290.007L118.288 275.996L113.241 255.104C112.364 251.519 111.316 247.925 110.608 244.307C110.404 243.268 109.886 241.245 110.403 240.301C110.44 240.233 110.485 240.169 110.525 240.103C112.866 236.238 120.3 231.722 124.297 229.792Z"/>
	<path fill="#8F1512" d="M89.5966 153.339C90.1759 153.215 90.8635 153.214 91.453 153.258C94.2382 153.468 107.268 157.441 108.823 159.288L108.76 159.723C105.291 161.846 93.885 165.087 89.7275 165.92C85.6261 164.453 80.2725 160.51 76.5627 160.239L76.4157 160.425C80.4071 162.922 84.8084 164.678 88.7706 167.183C93.6329 170.258 97.4227 181.422 99.9747 186.843C96.1291 184.641 83.7078 178.168 81.5723 175.427C79.2072 170.696 77.3374 165.737 75.2306 160.885L74.6703 160.979C74.6198 160.737 74.5779 160.5 74.5397 160.257L74.847 160.113L74.6062 159.796L74.343 160.019C73.8548 162.677 79.4361 172.516 80.1767 176.128C80.7301 178.827 74.1481 195.105 72.4962 197.661L72.0428 197.506C70.8787 196.118 65.7813 180.237 65.147 177.579C66.7278 173.673 68.6856 169.892 70.4901 166.084C71.7654 163.393 72.8483 160.388 74.5634 157.95C79.563 156.668 84.4711 153.908 89.5966 153.339Z"/>
	<path fill="#8F1512" d="M74.3169 122.143C74.3847 122.197 74.4547 122.247 74.5203 122.303C75.7667 123.365 80.2041 138.39 80.4502 140.756C78.8845 145.281 75.828 148.991 74.4924 153.926C74.3143 154.584 73.985 155.295 74.3334 155.898C76.0231 154.733 78.4191 145.195 81.2178 142.505C83.8093 140.013 96.125 134.905 100.507 132.467C97.0742 138.087 94.9038 145.464 90.08 150.061C86.3388 153.626 75.9102 157.15 70.6388 156.977C66.1902 154.878 61.0202 153.605 56.818 151.107C53.4955 149.132 46.482 135.455 44.3438 131.41C50.9656 135.349 58.2796 137.223 65.0237 140.755C67.6504 145.304 68.5997 150.864 71.2461 155.433C71.3817 155.667 71.5941 155.641 71.8454 155.708L72.0759 155.364C71.8182 152.305 67.5177 144.255 66.2853 140.581C67.7631 134.233 70.8491 127.633 74.3169 122.143Z"/>
	<path fill="#8F1512" d="M62.0906 181.931C62.8803 181.949 63.6535 182.161 64.3418 182.549C69.5315 185.412 67.4322 196.851 68.9486 201.797C71.2187 209.203 80.7115 204.366 86.0894 207.22C86.3645 208.178 86.772 209.362 86.7157 210.362C86.6757 211.073 86.3819 211.847 85.8307 212.318C83.3122 214.47 71.2683 213.507 67.9378 213.406C63.4831 213.174 45.7316 214.598 43.1182 212.708C42.6465 211.622 42.1626 210.435 42.3151 209.222C42.8514 204.959 50.0209 204.365 52.311 200.915C56.3272 194.865 56.1243 186.737 62.0906 181.931Z"/>
	<path fill="#8F1512" d="M53.9021 152.267C54.543 152.187 55.0926 152.185 55.7221 152.349C58.6586 153.115 61.5466 154.512 64.4033 155.568C66.983 156.521 69.6436 157.238 72.1928 158.274C72.0156 159.574 71.78 160.79 71.2733 162.008C70.4276 164.042 69.2384 165.974 68.2726 167.96C67.078 170.416 66.0543 173.056 64.6517 175.397C64.0783 176.354 63.4105 177.245 62.602 178.016C60.4158 180.102 57.3398 181.534 54.7272 183.045C52.5769 184.288 50.2663 185.893 47.9601 186.804C47.5724 186.957 47.4143 187.082 47.0172 186.908C46.6611 184.158 52.5509 170.659 54.3784 167.86C58.0706 165.334 63.0282 163.629 67.1353 161.845C68.0197 161.46 69.5292 161.089 70.2737 160.516C70.4451 160.384 70.6405 160.036 70.7794 159.854L70.6125 159.578C66.9116 159.608 60.4745 164.399 56.4332 165.249C52.1299 166.153 42.3551 162.365 37.7186 161.142C35.3479 160.516 32.9279 160.064 30.5222 159.594C38.3502 157.306 46.0853 154.61 53.9021 152.267Z"/>
	<path fill="#4E4E4F" d="M37.3614 148.052C38.0525 147.987 38.9323 147.822 39.6124 147.94C40.2048 148.044 40.3228 148.277 40.6201 148.737C40.4611 152.189 32.5899 155.158 31.0537 158.011C29.3547 161.166 38.4452 164.419 39.3926 167.414C39.3021 167.957 39.3417 168.02 38.9113 168.401C34.899 168.951 23.533 164.903 19.3412 163.604C14.9974 162.442 6.64189 160.671 2.89725 158.557C2.4256 158.291 2.35526 158.284 2.21414 157.77C3.65043 156.169 32.8923 149.001 37.3614 148.052Z"/>
</svg>
