<?xml version="1.0" encoding="utf-8" ?>
<svg xmlns="http://www.w3.org/2000/svg" xmlns:xlink="http://www.w3.org/1999/xlink" width="428" height="135">
	<path fill="#8D1511" d="M46.4298 2.12323C49.859 2.07704 63.9528 1.73161 66.5907 2.44545C67.3802 2.65909 67.6815 3.15395 68.0742 3.82851C71.0977 9.02132 72.7941 15.4859 74.9646 21.0854C80.8222 35.7658 86.5366 50.503 92.1071 65.2948C94.6707 71.9777 97.9222 82.4586 101.341 88.3115C106.341 76.8227 110.164 64.1462 114.127 52.2233C118.586 38.6747 123.502 25.281 128.867 12.0651C129.953 9.42797 131.208 4.90099 133.269 2.96238C134.05 2.58408 134.851 2.46331 135.71 2.40246C140.092 2.0921 170.988 1.73092 174.305 2.70967C175.041 2.92675 175.433 3.2025 175.793 3.87882C176.126 4.50651 176.233 5.30714 176.011 5.98693C175.192 8.4896 171.271 9.60808 169.1 10.7027C166.793 11.8658 164.187 14.2115 163.38 16.7202C162.5 19.4548 162.803 25.392 162.853 28.455C162.914 32.1913 162.981 35.9822 163.245 39.7097C163.411 42.0577 163.783 44.3924 163.876 46.7459L165.82 96.0764C166.034 101.107 165.853 114.744 167.337 118.547C169.724 124.659 178.888 123.171 180.759 126.864C181.336 128.003 181.122 130.419 180.717 131.611C180.278 131.994 180.045 132.018 179.468 132.094C177.449 132.357 175.278 132.188 173.237 132.195L161.048 132.237L136.341 132.263C133.603 132.246 130.829 132.38 128.096 132.281C127.446 132.258 126.657 132.258 126.122 131.846C125.78 130.631 126.179 128.496 126.502 127.277C126.652 126.711 126.879 126.22 127.362 125.859C129.18 124.503 133.113 124.022 135.434 122.673C136.929 121.804 138.542 120.451 138.994 118.704C139.265 117.656 139.406 115.585 138.852 114.643C138.861 114.627 138.87 114.612 138.879 114.596C138.893 114.569 138.905 114.542 138.92 114.515C138.946 114.468 138.976 114.424 139.001 114.377C139.347 113.751 139.369 113.075 139.397 112.376C139.599 107.292 139.255 102.051 139.161 96.9572L138.329 64.4696C138.111 57.6651 138.559 43.6209 136.912 37.7545C136.749 37.1736 136.573 36.6021 136.016 36.2876C135.357 36.6112 135.06 37.4128 134.771 38.0713C132.315 43.6623 130.319 49.6525 127.929 55.3453C123.614 65.6197 118.907 75.783 114.99 86.2154C111.294 96.0604 107.828 106.01 104.286 115.913C102.929 119.705 101.742 123.599 100.247 127.335C99.7256 128.637 98.7967 131.282 97.6146 132.035C95.9576 133.091 93.1883 132.367 91.3918 131.989C89.0394 127.957 87.2184 120.691 85.4994 116.068C83.4695 110.61 81.4878 105.114 79.3772 99.6868C77.4983 94.8554 75.4273 90.1644 74.0183 85.1608C75.8418 81.4283 84.1925 81.9261 86.637 78.5611C86.9626 75.2861 75.6451 74.5777 74.1084 71.6308C72.2043 67.9797 77.4114 52.7179 78.8653 48.4324C75.6792 49.1141 63.1748 54.1798 61.1591 53.4522C58.792 52.5977 52.4869 34.7947 50.8817 31.6799C50.5108 30.9602 50.1905 30.1476 49.3919 29.8912C47.8441 30.7992 40.5805 48.0973 39.0896 50.9169C38.5865 51.8684 37.7751 53.2589 36.6865 53.594C36.3946 53.5317 36.2023 53.4177 35.9822 53.2171C34.8011 52.1412 34.4013 50.4677 34.2769 48.9339C34.0397 46.0066 34.6646 43.0338 34.9952 40.1319C35.7421 33.5771 36.8279 26.3242 36.4498 19.7513C36.0344 12.5301 30.7577 10.7125 24.6407 9.41635C23.3235 9.13724 21.6602 8.97457 20.6378 8.02008C19.97 7.39659 19.7131 6.56059 19.7009 5.6696C19.6898 4.86272 19.8249 3.62734 20.4326 3.04497C21.6914 1.83853 43.0349 2.17152 46.4298 2.12323Z"/>
	<path fill="#8D1511" d="M230.369 29.8748C237.589 29.7323 244.818 30.0724 252.036 30.1832C263.325 30.3565 277.641 28.5913 287.532 35.3032C292.432 38.6283 295.376 43.4151 296.47 49.1912C297.79 56.1552 297.121 63.8379 293.049 69.7959C287.429 78.0178 277.539 81.7322 267.905 82.0316C264.162 82.1479 259.97 81.6674 256.306 82.3511C254.497 84.4936 256.97 96.3184 255.284 98.875C256.056 100.084 255.962 106.181 255.953 107.858C256.6 108.239 257.046 109.034 257.749 109.455C259.944 110.77 263.364 110.907 265.868 111.298C266.064 111.618 266.213 111.951 266.3 112.317C266.649 113.775 266.686 116.098 265.882 117.388C265.229 117.833 264.794 117.838 264.01 117.894C258.681 118.276 253.086 117.928 247.724 117.938C241.479 117.95 234.938 118.364 228.734 117.788C229.403 116.452 228.256 113.936 228.846 112.296C229.531 110.394 233.843 111.136 235.597 110.297C236.417 109.904 237.044 109.197 237.334 108.336C238.258 105.632 238.011 51.3565 237.622 44.3091C237.545 42.9172 237.492 41.2293 236.855 39.9715C235.452 37.1991 232.672 37.5473 230.164 36.6891C229.459 36.448 228.883 35.9995 228.566 35.311C228.067 34.2297 228.081 32.2833 228.505 31.1782C228.783 30.4541 229.707 30.1623 230.369 29.8748ZM255.367 73.2853C260.826 73.1545 267.499 73.6247 272.477 71.1186L272.658 70.8752C274.853 69.8271 276.416 67.7623 277.21 65.5022C278.927 60.6176 278.675 51.4631 276.385 46.7523C274.685 43.2561 271.861 40.6602 268.173 39.3843C265.136 38.3338 261.43 38.7695 258.264 38.875C257.416 38.9192 256.58 38.8838 255.857 39.3871C254.031 41.9443 257.216 70.4358 255.367 73.2853Z"/>
	<path fill="#8D1511" d="M331.764 30.1249C337.76 29.8167 344.427 30.6425 350.029 32.8174C355.865 35.0839 360.686 38.6248 363.245 44.4763C366.057 50.9095 366.114 59.4826 363.55 66.0026C359.024 77.5114 346.991 81.8858 335.411 82.0718C332.94 82.1115 327.322 81.5515 325.205 82.4716C325.036 82.6897 324.993 82.8621 324.957 83.1292C324.518 86.4396 324.343 102.822 324.813 106.191C324.945 107.143 325.356 108.237 325.951 108.998C327.646 111.166 331.825 110.901 334.348 111.21C334.369 111.241 334.39 111.274 334.412 111.305C335.009 112.15 334.855 113.493 334.848 114.498C334.841 115.453 334.754 116.524 334.005 117.219C332.965 118.184 331.007 117.959 329.687 117.931C323.948 117.97 301.163 118.531 297.271 117.431C296.668 116.834 296.355 115.414 296.321 114.588C296.281 113.623 296.495 112.505 297.191 111.789C298.039 110.915 299.09 110.981 300.211 110.938C301.85 110.875 304.067 110.858 305.232 109.509C306.032 108.581 306.066 106.446 306.15 105.243C306.706 97.2926 306.221 89.2112 306.333 81.2392C306.509 73.2359 306.58 65.2307 306.545 57.2256C306.53 52.0257 306.587 46.7738 306.043 41.5975C305.892 40.1604 305.457 39.057 304.31 38.1281C302.843 36.6301 299.593 37.5492 297.903 36.3752C297.257 35.9266 296.948 34.7902 296.834 34.0495C296.681 33.0531 296.723 31.8938 297.364 31.0671C298.796 29.222 327.146 30.7939 331.764 30.1249ZM324.22 73.2931C327.958 73.1697 339.95 73.3194 342.283 70.6663C342.294 70.6534 342.303 70.6388 342.314 70.625C343.895 69.96 344.992 68.0927 345.618 66.5691C347.773 61.3258 347.592 52.6582 345.376 47.4554C344.024 44.2836 341.431 41.0808 338.171 39.7934C334.489 38.3389 329.898 38.6752 325.998 38.8749C325.482 39.0611 325.001 39.1119 324.746 39.6466C324.018 41.1785 324.435 44.6593 324.435 46.412C324.436 49.2327 324.989 72.0898 324.22 73.2931Z"/>
	<path fill="#8D1511" d="M195.084 29.6249C198.157 29.547 201.283 29.908 204.363 29.9538C209.903 30.0362 215.443 29.8808 220.983 30.0073C221.026 30.0722 221.032 30.0784 221.066 30.1397C221.08 30.1661 221.094 30.193 221.108 30.2196C221.559 31.0664 221.885 33.1401 221.633 34.0834C220.918 36.7631 217.491 36.7832 215.375 37.4759C214.631 37.7194 213.887 38.1919 213.211 38.583C213.287 39.4436 212.74 40.8247 212.597 41.7265C212.28 43.6234 212.121 45.5433 212.122 47.4665C212.233 64.8049 211.916 82.1862 212.458 99.5163C212.636 105.188 211.977 108.803 218.168 110.934C219.208 111.292 220.418 111.562 221.225 112.354C221.858 112.976 222.071 113.833 222.077 114.692C222.084 115.678 221.913 116.725 221.227 117.427C218.571 118.486 214.538 117.973 211.687 117.941C207.587 117.944 189.086 118.467 186.627 117.258C186.16 116.444 186.005 115.54 185.921 114.614C185.845 113.766 185.843 112.662 186.451 111.994C187.299 111.062 189.402 111.392 190.574 111.316C191.767 111.238 192.855 110.927 193.654 109.988C194.503 108.991 194.754 107.614 194.848 106.347C195.105 102.894 194.865 99.2934 194.842 95.8198L194.784 76.3557L194.784 53.5553C194.784 49.7285 195.008 45.7571 194.731 41.9507C194.258 35.4375 189.615 38.6022 186.608 35.9269C185.824 35.2299 185.54 34.1354 185.491 33.1209C185.45 32.2647 185.573 31.4093 186.191 30.7625C187.743 29.1372 192.939 29.7006 195.084 29.6249Z"/>
	<path fill="#8D1511" d="M391.607 45.8749C394.868 45.7242 398.202 45.5023 401.414 46.2349C403.161 49.7231 400.224 65.6356 401.942 69.3655C404.048 70.388 418.789 69.4236 422.838 70.1029C422.964 70.2941 423.059 70.4939 423.132 70.711C423.839 72.8112 423.832 78.4208 422.835 80.3978C418.071 81.9529 407.203 79.7979 402.221 81.0817C400.479 82.6554 402.32 97.1445 401.322 100.47C401.088 101.25 400.718 101.407 400.056 101.772C398.511 102.504 391.576 101.926 389.533 101.845C389.6 101.719 389.664 101.582 389.692 101.44C390.043 99.6572 389.821 81.9624 389.138 80.8887C385.825 80.4703 382.314 80.7102 378.973 80.6982C375.45 80.6855 371.918 80.485 368.398 80.3229C369.625 78.0571 367.412 71.9868 368.841 70.14C371.587 68.3525 384.919 69.6343 389.298 69.0957C390.99 66.7927 388.556 49.958 390.027 46.8845C390.354 46.2009 390.958 46.1101 391.607 45.8749Z"/>
	<path fill="#8D1511" d="M63.2925 72.0076C64.0252 71.908 64.7527 71.9914 65.4749 72.1251C67.9212 72.5777 82.275 77.0164 83.2041 78.3786L83.0199 78.8058C79.2122 79.9074 67.4559 84.6554 64.5811 84.7423C60.5762 84.8634 52.3117 78.1841 49.9593 78.7511C50.9591 81.0751 62.5788 85.0913 64.7228 87.5058C66.718 89.7529 71.8386 101.804 73.6661 105.394C71.4667 104.393 57.7156 96.6267 56.3511 95.4157C55.7338 94.8678 55.429 94.0641 55.1147 93.3199C54.5316 91.9052 49.1059 79.9099 49.0965 79.665C49.0864 79.4012 49.3733 78.7821 49.4608 78.5029L49.2744 78.2574C48.7414 78.3921 48.6824 78.4254 48.3816 78.8856C48.0477 82.2326 53.1776 91.0539 54.1041 95.0591C54.3259 96.0181 54.2201 96.7357 53.9714 97.6715C52.736 102.32 50.4068 106.891 48.568 111.346C47.8432 113.102 47.3209 115.086 46.3266 116.7L45.9586 116.582C45.2213 115.501 39.5737 98.3654 39.2639 96.614C41.1162 92.1809 43.2535 87.9112 45.3262 83.5799C46.3517 81.4371 47.1871 79.2436 48.3286 77.1536C53.464 76.0088 58.306 73.6288 63.2925 72.0076Z"/>
	<path fill="#8D1511" d="M48.1895 41.12C48.3202 41.217 48.6149 41.3781 48.702 41.5001C49.1276 42.0969 54.2069 58.134 54.4481 59.411C51.7993 65.0597 48.5092 70.1168 47.6911 76.4612C50.2791 72.0657 51.8248 67.0528 54.3033 62.5758C54.831 61.6226 55.8119 60.8838 56.7262 60.3269C58.7445 59.0975 61.1309 58.2667 63.2828 57.281C66.9567 55.5981 70.7025 53.7389 74.216 51.7396C71.1333 56.7504 68.0006 65.0512 64.0772 69.0925C63.4635 69.7245 62.7734 70.2721 61.9899 70.6796C60.5012 71.4537 58.7636 71.8839 57.2057 72.5294C54.6795 73.5762 52.3872 75.0259 49.6948 75.6691C48.1139 76.0468 46.285 75.9757 44.6581 75.9941C39.7629 73.6789 34.7716 71.7552 29.7544 69.7407C25.9507 64.552 22.0008 56.4551 18.5142 50.6897C22.19 52.779 26.0229 54.5788 29.9782 56.0727C32.9593 57.2231 36.1856 58.1752 38.9498 59.7923C41.2623 63.8735 42.9459 71.6542 45.5912 74.9397L46.1376 74.9781C46.6985 73.6967 41.3066 62.8065 40.7084 60.3422C40.4851 59.4223 40.5791 58.6307 40.8185 57.7264C41.7228 54.3118 46.3637 44.1215 48.1895 41.12Z"/>
	<path fill="#8D1511" d="M35.946 101.039C36.0845 101.026 36.2232 101.015 36.3621 101.007C37.4581 100.949 38.1799 101.332 38.9743 102.056C42.6982 105.452 41.874 112.142 42.1019 116.648C42.8357 131.152 55.453 122.253 59.5963 126.19C60.2037 126.768 60.3948 127.585 60.4112 128.393C60.4283 129.231 60.2909 130.905 59.7002 131.52C56.8841 133.067 44.1053 132.307 40.4375 132.293C36.0107 132.268 31.5837 132.273 27.1569 132.308C24.3751 132.347 21.407 132.605 18.6409 132.344C18.3112 132.313 17.6073 132.293 17.4028 132.031C16.3911 130.734 16.8399 127.379 17.0627 125.809C19.4788 124.02 22.6411 123.785 24.8777 121.695C30.7025 116.251 29.2335 106.543 35.946 101.039Z"/>
	<path fill="#8D1511" d="M5.24916 78.6919C9.19154 76.404 14.3719 75.588 18.7155 74.2981C22.0929 73.2952 25.415 72.0887 28.7796 71.0379C32.3182 72.229 35.7456 73.7354 39.25 75.0245C40.3754 75.3516 45.6212 76.7278 46.2531 77.4745C46.0292 78.0503 45.6657 78.7088 45.8308 79.3339C45.7249 80.7911 44.2346 82.7845 43.5295 84.1283C41.6162 87.775 40.1507 91.8454 38.0752 95.362C37.5067 96.3253 36.8429 96.9911 35.9376 97.641C34.9271 98.3663 21.8315 105.975 21.1424 106.153L20.8411 105.937C20.8044 104.255 27.0859 88.7578 28.2826 86.8534C29.9665 85.9594 43.4786 79.6171 44.275 79.6973C44.6371 79.347 44.8758 79.0713 45.0625 78.6002C44.5235 78.297 44.0147 78.4913 43.415 78.5761C43.4012 78.5878 43.3885 78.601 43.3736 78.6113C41.9166 79.6119 39.7358 79.9894 38.1148 80.784C35.5501 82.0412 32.1504 84.0395 29.3371 84.4372C26.4814 84.841 10.5534 79.2723 5.24916 78.6919Z"/>
</svg>
