<?xml version="1.0" encoding="utf-8" ?>
<svg xmlns="http://www.w3.org/2000/svg" xmlns:xlink="http://www.w3.org/1999/xlink" width="244" height="140">
	<path fill="#8D1511" d="M21.5038 4.36328C31.7548 4.2376 42.0066 4.19049 52.2584 4.22195C55.0267 4.22833 60.364 3.7766 62.741 4.43201C62.9148 4.47857 63.0795 4.55398 63.2283 4.6551C64.2242 5.32757 65.3826 8.49333 65.8655 9.63455C68.1103 14.9392 69.9295 20.4594 72.0326 25.828C78.0658 40.9791 83.9555 56.187 89.7009 71.4496C92.0708 77.6355 93.9835 84.6051 97.344 90.3094C102.244 79.0562 105.951 66.8221 109.817 55.1571C114.267 41.6594 119.144 28.3061 124.44 15.1172C125.549 12.4276 126.982 7.63904 128.78 5.46768C129.449 4.66084 130.513 4.54753 131.504 4.46923C137.713 3.97847 144.819 4.25764 151.108 4.24019C156.691 4.2247 162.56 3.86526 168.113 4.34728C169.108 4.43364 170.724 4.57272 171.489 5.28672C171.876 5.64757 172.091 6.38276 172.1 6.895C172.157 10.1124 166.923 11.7263 164.716 13.0235C163.364 13.8182 162.087 14.8014 161.016 15.95C159.783 17.2733 159.263 18.5021 159.063 20.291C158.318 26.9506 158.76 34.9747 159.249 41.6527C159.416 43.9371 159.785 46.2126 159.877 48.5016L161.955 103.752C162.113 107.865 161.844 119.254 164.175 122.22C165.678 124.131 168.483 125.088 170.723 125.829C172.485 126.412 175.088 126.913 176.475 128.197C177.012 129.203 177.361 130.736 177.23 131.876C177.153 132.546 176.893 133.227 176.339 133.643C175.725 134.104 174.848 134.251 174.097 134.285C172.361 134.364 170.598 134.115 168.854 134.137L146.19 134.25L130.877 134.284C128.148 134.286 125.234 134.491 122.529 134.134C122.378 133.986 122.203 133.87 122.144 133.663C121.819 132.521 122.186 129.473 122.795 128.464C123.38 127.492 124.42 127.327 125.437 127.077C126.956 126.562 128.516 126.074 130 125.464C131.841 124.709 133.766 123.393 134.546 121.486C135.325 119.581 135.317 116.796 135.372 114.755C135.591 106.706 134.378 42.9424 132.819 39.3332C132.576 38.7713 132.434 38.6116 131.889 38.3928C130.184 39.7012 127.851 47.8459 126.824 50.3162L115.183 78.0398C114.029 80.8419 112.729 83.5841 111.657 86.4195C107.715 96.8462 104.048 107.395 100.294 117.891C98.9309 121.703 97.7331 125.606 96.2465 129.368C95.6862 130.786 94.8496 133.201 93.559 134.05C91.9558 135.106 89.105 134.358 87.3524 133.966C84.9572 129.7 83.2981 122.907 81.5267 118.14C79.4892 112.658 77.4969 107.139 75.3781 101.689C73.4957 96.8465 71.439 92.1614 70.0153 87.1518C71.8492 83.4297 80.1772 83.9256 82.6387 80.5622C82.9576 77.3008 71.6334 76.5522 70.1079 73.632C68.1993 69.9785 73.3919 54.7751 74.8641 50.4325C70.3281 51.4196 61.5307 55.4888 57.9583 55.7125C54.1577 55.9505 48.8669 34.4848 45.9646 32.205C45.8274 32.0972 45.5035 32.1844 45.3239 32.2053C43.0423 34.042 36.9061 49.4009 35.0381 53.0386C34.5716 53.9472 33.9128 55.3396 32.8677 55.6743C32.5248 55.6104 32.2406 55.508 31.9862 55.2588C31.0702 54.3614 30.4155 52.6797 30.2854 51.411C29.9685 48.3203 30.6715 45.0743 31.0119 42.0022C31.7433 35.4 32.7378 28.2947 32.4757 21.6685C32.2113 14.9816 27.0158 12.7638 21.2763 11.5326C19.8029 11.2166 17.6276 10.9959 16.4923 9.90803C15.9186 9.35821 15.6263 8.64524 15.6066 7.85436C15.5851 6.99298 15.7993 5.80033 16.4311 5.17602C17.4849 4.13476 20.0832 4.3937 21.5038 4.36328Z"/>
	<path fill="#8D1511" d="M205.662 40.8747C208.899 40.7267 212.225 40.503 215.411 41.2368C217.057 44.2107 214.34 61.9684 216.048 64.3863C216.11 64.4738 216.244 64.6465 216.343 64.6919C217.306 65.1337 233.478 64.6238 236.837 65.0968C237.045 65.4156 237.161 65.7613 237.247 66.1305C237.719 68.169 237.91 73.639 236.811 75.409C232.032 76.963 221.241 74.8339 216.032 75.9913C215.07 78.5832 215.505 88.1085 215.503 91.6093C215.502 92.7964 215.697 94.336 215.386 95.4666C215.175 96.233 214.693 96.4252 214.055 96.7738C212.511 97.5044 205.575 96.9265 203.533 96.8457C203.6 96.7192 203.664 96.5819 203.692 96.4405C204.043 94.6534 203.815 76.9583 203.137 75.8854C199.982 75.4123 196.464 75.7049 193.265 75.6987C189.65 75.6916 186.026 75.4965 182.414 75.3375C183.596 72.9289 181.399 67.1465 182.794 65.1274C185.77 63.3075 198.767 64.6591 203.299 64.0938C205.034 61.7282 202.513 45.1643 204.027 41.9035C204.357 41.1925 204.991 41.1116 205.662 40.8747Z"/>
	<path fill="#8D1511" d="M44.1904 43.1204C44.3408 43.2321 44.5774 43.3665 44.7017 43.5001C45.0531 43.8781 50.1225 59.6907 50.4477 61.4119C47.8008 67.0564 44.506 72.115 43.6921 78.4557C46.2988 74.0353 47.7813 68.9602 50.3449 64.5026C50.8675 63.5937 51.8442 62.8645 52.7263 62.327C54.7445 61.0975 57.1312 60.2661 59.2833 59.281C62.9559 57.6 66.7062 55.7407 70.2154 53.7373C67.3094 58.6869 63.7754 67.3281 59.9572 71.2162C59.3689 71.8166 58.6875 72.3179 57.9392 72.7007C56.4482 73.4526 54.7551 73.8886 53.2063 74.53C50.6806 75.5761 48.3858 77.024 45.6952 77.6686C44.1121 78.0479 42.2839 77.9734 40.6547 77.9941C35.7606 75.6792 30.7721 73.7536 25.7551 71.74C21.9633 66.5782 17.9925 58.4394 14.5136 52.6879C18.2225 54.7993 22.0927 56.614 26.0879 58.115C29.035 59.25 32.2204 60.1936 34.951 61.7947C36.2101 64.0225 40.4095 76.2518 41.6584 77.0441L42.0145 76.783C42.4421 75.0449 37.3333 64.7647 36.6407 61.9054C36.0764 59.5756 42.5902 45.7477 44.1904 43.1204Z"/>
	<path fill="#8D1511" d="M31.9457 103.039C32.0842 103.026 32.223 103.016 32.3619 103.008C33.4582 102.949 34.1795 103.332 34.9741 104.056C38.6992 107.451 37.8751 114.136 38.1022 118.648C38.8323 133.156 51.4559 124.252 55.5893 128.194C56.1712 128.749 56.3743 129.526 56.401 130.305C56.4305 131.166 56.2959 132.885 55.6954 133.521C52.9816 135.095 39.9845 134.293 36.29 134.281C31.9717 134.249 27.6532 134.256 23.335 134.3C20.5036 134.346 17.4352 134.638 14.6224 134.331C14.2176 134.287 13.6461 134.276 13.3935 133.939C12.4362 132.66 12.8627 129.349 13.0622 127.808C15.4806 126.02 18.6488 125.794 20.8817 123.697C26.6985 118.234 25.2546 108.525 31.9457 103.039Z"/>
	<path fill="#8D1511" d="M44.368 79.1762C47.1423 78.3457 49.9464 77.4726 52.6619 76.467C54.4486 75.8053 56.2731 74.8959 58.1153 74.4336C59.1449 74.1752 60.17 74.0669 61.2294 74.1623C63.9416 74.4067 66.8365 75.6616 69.4113 76.5265C72.4166 77.536 75.8116 78.3605 78.6249 79.792C78.8421 79.9025 79.0135 80.0866 79.1653 80.2734L79.1167 80.6738C77.8204 81.199 76.4483 81.5032 75.128 81.9772C70.9571 83.4745 64.9806 86.1421 60.7905 86.7066C59.8085 86.8389 59.1101 86.7159 58.1923 86.3314C55.8746 85.3604 48.2928 80.8633 46.6453 80.6668C46.4394 80.6422 45.9745 80.715 45.7858 80.8009C45.7489 80.8177 45.713 80.8368 45.6766 80.8548L45.3315 80.5905L45.004 80.3203C44.7518 80.4367 44.4404 80.497 44.3421 80.7685C43.4117 83.3392 50.5034 94.4168 50.1352 98.8176C49.8964 101.672 47.1846 107.047 46.0003 109.951C45.0083 112.383 43.6711 116.826 42.2235 118.761C42.1195 118.697 41.9152 118.609 41.8375 118.525C41.5883 118.255 35.8725 101.342 35.4292 99.506C35.3578 99.1986 35.3002 98.8881 35.2568 98.5755C37.1733 94.0934 39.3285 89.7497 41.4336 85.3569C42.4248 83.2884 43.1959 81.1566 44.368 79.1762Z"/>
	<path fill="#8D1511" d="M1.11317 80.6937C5.47903 78.7023 10.0575 77.6713 14.6316 76.3221C18.0377 75.3173 21.3865 74.0965 24.7783 73.038C28.3973 74.2536 31.9006 75.801 35.4929 77.0973C36.8196 77.4921 41.5604 78.6588 42.2538 79.4738C42.0404 80.0123 41.6773 80.7432 41.8336 81.3328C41.3617 81.376 40.8343 81.5602 40.3688 81.6714C40.6686 81.3327 40.8572 81.0087 41.0513 80.601C40.5262 80.2857 40.0094 80.499 39.4174 80.5924C37.8579 81.5394 35.9282 81.9152 34.2738 82.7074C31.6285 83.9742 28.2175 86.0302 25.3262 86.4343C22.2979 86.8576 6.72684 81.1669 1.11317 80.6937Z"/>
	<path fill="#9E1C18" d="M39.4174 80.5924C39.1804 80.5387 37.0213 78.1185 35.4362 77.5372L35.4929 77.0973C36.8196 77.4921 41.5604 78.6588 42.2538 79.4738C42.0404 80.0123 41.6773 80.7432 41.8336 81.3328C41.3617 81.376 40.8343 81.5602 40.3688 81.6714C40.6686 81.3327 40.8572 81.0087 41.0513 80.601C40.5262 80.2857 40.0094 80.499 39.4174 80.5924Z"/>
	<path fill="#8D1511" d="M40.3688 81.6714C40.8343 81.5602 41.3617 81.376 41.8336 81.3328C41.8095 81.651 41.7578 81.9994 41.6226 82.2917C40.6201 84.4593 39.2737 86.5591 38.2039 88.7156C36.7439 91.659 35.5417 95.3768 33.6573 98.0078C33.1125 98.7683 32.3913 99.3433 31.6194 99.8631C30.3472 100.72 17.711 108.038 17.0431 108.148L16.8277 107.812C16.9493 106.014 23.0927 90.749 24.2823 88.8551C26.2683 87.7995 39.5794 81.5705 40.3688 81.6714Z"/>
	<path fill="#8D1511" d="M45.3315 80.5905L45.6766 80.8548C47.3893 82.4543 50.0203 83.485 52.0494 84.6819C52.6683 84.9076 60.3217 89.048 60.5585 89.2893C62.4706 91.2377 67.9284 103.981 69.665 107.393C66.3978 105.949 63.3807 103.775 60.2631 102.024C57.8702 100.68 54.8343 99.4486 52.7325 97.7041C50.8462 96.1385 47.794 87.3458 46.4946 84.5133C46.188 83.6441 45.4733 82.9336 45.1476 82.0703C44.9043 81.4253 45.0743 81.1868 45.3315 80.5905Z"/>
	<path fill="#9E1C18" d="M45.3315 80.5905L45.6766 80.8548C47.3893 82.4543 50.0203 83.485 52.0494 84.6819C50.3004 85.1821 48.4695 84.0341 46.4946 84.5133C46.188 83.6441 45.4733 82.9336 45.1476 82.0703C44.9043 81.4253 45.0743 81.1868 45.3315 80.5905Z"/>
</svg>
