<svg width="61" height="61" viewBox="0 0 61 61" fill="none" xmlns="http://www.w3.org/2000/svg">
<g clip-path="url(#clip0_309_895)">
<path d="M17.0609 33.7178C16.8985 33.2433 16.5557 32.852 16.1068 32.6286C15.6579 32.4051 15.139 32.3676 14.6626 32.524C14.1862 32.6805 13.7907 33.0184 13.5616 33.4645C13.3326 33.9106 13.2886 34.4289 13.4391 34.9072C19.0053 51.8614 42.2349 51.9568 47.5686 34.8806C47.6528 34.6392 47.6875 34.3834 47.6709 34.1283C47.6542 33.8733 47.5864 33.6242 47.4715 33.3959C47.3566 33.1675 47.197 32.9646 47.0021 32.7993C46.8072 32.6339 46.581 32.5094 46.3371 32.4332C46.0931 32.3569 45.8363 32.3306 45.5819 32.3556C45.3275 32.3807 45.0808 32.4566 44.8563 32.579C44.6319 32.7013 44.4344 32.8675 44.2755 33.0677C44.1166 33.268 43.9996 33.4981 43.9314 33.7444C39.7377 47.1644 21.5063 47.2636 17.0609 33.7178ZM45.75 24.7812C45.2163 24.7812 44.6444 24.5525 44.3013 24.095C44.3013 24.095 43.1956 22.875 40.9844 22.875C38.7731 22.875 37.7056 24.0569 37.6675 24.1331C36.9813 24.8956 35.7612 25.01 34.9988 24.3237C34.6198 24.0051 34.3828 23.549 34.34 23.0558C34.2971 22.5625 34.4517 22.0724 34.77 21.6931C34.9987 21.4263 37.0575 19.1006 40.9844 19.1006C44.9113 19.1006 47.0081 21.4263 47.1987 21.6931C47.885 22.4937 47.7706 23.7137 46.97 24.3619C46.6277 24.6451 46.1941 24.7942 45.75 24.7812ZM23.3325 24.095C23.6756 24.5525 24.2475 24.7812 24.7812 24.7812C25.2006 24.7812 25.6581 24.6669 26.0013 24.3619C26.8019 23.7137 26.9163 22.4937 26.23 21.6931C26.0394 21.4263 23.9425 19.1006 20.0156 19.1006C16.0888 19.1006 14.03 21.4263 13.8012 21.6931C13.1531 22.4556 13.2294 23.6375 14.03 24.3237C14.7925 25.01 16.0125 24.8956 16.6987 24.1331C16.7369 24.0569 17.8044 22.875 20.0156 22.875C22.2269 22.875 23.3325 24.095 23.3325 24.095ZM61 30.5C61 38.5891 57.7866 46.3469 52.0668 52.0668C46.3469 57.7866 38.5891 61 30.5 61C22.4109 61 14.6531 57.7866 8.93324 52.0668C3.21338 46.3469 0 38.5891 0 30.5C0 22.4109 3.21338 14.6531 8.93324 8.93324C14.6531 3.21338 22.4109 0 30.5 0C38.5891 0 46.3469 3.21338 52.0668 8.93324C57.7866 14.6531 61 22.4109 61 30.5ZM57.1875 30.5C57.1875 23.422 54.3758 16.634 49.3709 11.6291C44.366 6.62421 37.578 3.8125 30.5 3.8125C23.422 3.8125 16.634 6.62421 11.6291 11.6291C6.62421 16.634 3.8125 23.422 3.8125 30.5C3.8125 37.578 6.62421 44.366 11.6291 49.3709C16.634 54.3758 23.422 57.1875 30.5 57.1875C37.578 57.1875 44.366 54.3758 49.3709 49.3709C54.3758 44.366 57.1875 37.578 57.1875 30.5Z" fill="black"/>
</g>
<defs>
<clipPath id="clip0_309_895">
<rect width="61" height="61" fill="white"/>
</clipPath>
</defs>
</svg>
