<svg width="44" height="43" viewBox="0 0 44 43" fill="none" xmlns="http://www.w3.org/2000/svg">
<rect x="6" y="16" width="10" height="23" fill="white"/>
<path d="M16.5 39.4167V21.5H27.5V39.4167M5.5 16.125L22 3.58333L38.5 16.125V35.8333C38.5 36.7837 38.1137 37.6951 37.4261 38.3671C36.7384 39.0391 35.8058 39.4167 34.8333 39.4167H9.16667C8.19421 39.4167 7.26158 39.0391 6.57394 38.3671C5.88631 37.6951 5.5 36.7837 5.5 35.8333V16.125Z" stroke="white" stroke-width="4" stroke-linecap="round" stroke-linejoin="round"/>
<rect x="29" y="16" width="10" height="23" fill="white"/>
<rect x="8.55542" y="21.6164" width="9.17221" height="27.5218" transform="rotate(-91.4375 8.55542 21.6164)" fill="white"/>
<path d="M22.0665 5.05128L32.0331 11.6025L21.9999 18.0511L12.0333 11.4999L22.0665 5.05128Z" fill="white"/>
</svg>
