<svg width="49" height="48" viewBox="0 0 49 48" fill="none" xmlns="http://www.w3.org/2000/svg">
<path fill="white" fill-rule="evenodd" d="
  M10 4H25V17H39V44H10V4Z
  M33.6707 38.0995L29.2786 33.7057C30.5955 31.9897 31.2103 29.8371 30.9983 27.6845C30.7864 25.5319 29.7635 23.5405 28.1372 22.1142C26.5109 20.688 24.403 19.9338 22.241 20.0046C20.079 20.0753 18.0249 20.9658 16.4954 22.4952C14.9658 24.0247 14.0753 26.0787 14.0046 28.2406C13.9338 30.4025 14.6881 32.5103 16.1143 34.1365C17.5406 35.7628 19.5321 36.7856 21.6848 36.9976C23.8375 37.2095 25.9903 36.5947 27.7064 35.2779L32.1021 39.6744C32.2054 39.7776 32.3279 39.8595 32.4628 39.9154C32.5977 39.9712 32.7423 40 32.8883 40C33.0343 40 33.1788 39.9712 33.3137 39.9154C33.4486 39.8595 33.5711 39.7776 33.6744 39.6744C33.7776 39.5712 33.8595 39.4486 33.9154 39.3137C33.9712 39.1789 34 39.0343 34 38.8883C34 38.7423 33.9712 38.5978 33.9154 38.4629C33.8595 38.328 33.7776 38.2055 33.6744 38.1022L33.6707 38.0995Z
  M16.2383 28.5268C16.2383 27.2831 16.6071 26.0672 17.2982 25.033C17.9892 23.9989 18.9714 23.1929 20.1206 22.7169C21.2697 22.2409 22.5342 22.1164 23.7541 22.359C24.9741 22.6017 26.0947 23.2006 26.9742 24.0801C27.8537 24.9596 28.4527 26.0801 28.6953 27.3C28.938 28.5199 28.8134 29.7843 28.3375 30.9334C27.8615 32.0825 27.0554 33.0647 26.0212 33.7557C24.987 34.4467 23.7711 34.8155 22.5272 34.8155C20.8598 34.8138 19.2612 34.1507 18.0822 32.9717C16.9031 31.7927 16.24 30.1942 16.2383 28.5268Z"/>
<path d="M26.542 4H12.2503C11.1674 4 10.1287 4.42143 9.36297 5.17157C8.5972 5.92172 8.16699 6.93913 8.16699 8V40C8.16699 41.0609 8.5972 42.0783 9.36297 42.8284C10.1287 43.5786 11.1674 44 12.2503 44H36.7503C37.8333 44 38.8719 43.5786 39.6377 42.8284C40.4034 42.0783 40.8337 41.0609 40.8337 40V18M26.542 4L40.8337 18M26.542 4V18H40.8337" stroke="white" stroke-width="4" stroke-linecap="round" stroke-linejoin="round"/>
</svg>
