<?xml version="1.0" encoding="UTF-8" standalone="no"?>
<svg
   width="49"
   height="48"
   viewBox="0 0 49 48"
   fill="none"
   version="1.1"
   id="svg4"
   sodipodi:docname="soli_selected.svg"
   inkscape:version="1.4.2 (f4327f4, 2025-05-13)"
   xmlns:inkscape="http://www.inkscape.org/namespaces/inkscape"
   xmlns:sodipodi="http://sodipodi.sourceforge.net/DTD/sodipodi-0.dtd"
   xmlns="http://www.w3.org/2000/svg"
   xmlns:svg="http://www.w3.org/2000/svg">
  <defs
     id="defs4" />
  <sodipodi:namedview
     id="namedview4"
     pagecolor="#000000"
     bordercolor="#000000"
     borderopacity="0"
     inkscape:showpageshadow="2"
     inkscape:pageopacity="0.0"
     inkscape:pagecheckerboard="0"
     inkscape:deskcolor="#d1d1d1"
     inkscape:zoom="17.8125"
     inkscape:cx="24.505263"
     inkscape:cy="24"
     inkscape:window-width="1920"
     inkscape:window-height="1057"
     inkscape:window-x="-8"
     inkscape:window-y="-8"
     inkscape:window-maximized="1"
     inkscape:current-layer="svg4" />
  <path
     d="M28.5833 4H12.25C11.167 4 10.1284 4.42143 9.36261 5.17157C8.59683 5.92172 8.16663 6.93913 8.16663 8V40C8.16663 41.0609 8.59683 42.0783 9.36261 42.8284C10.1284 43.5786 11.167 44 12.25 44H36.75C37.8329 44 38.8715 43.5786 39.6373 42.8284C40.4031 42.0783 40.8333 41.0609 40.8333 40V16M28.5833 4L40.8333 16M28.5833 4V16H40.8333M24.5 36V24M18.375 30H30.625"
     stroke="white"
     stroke-width="4"
     stroke-linecap="round"
     stroke-linejoin="round"
     id="path1" />
  <rect
     style="fill:#000000"
     id="rect20"
     width="18.414038"
     height="18.863157"
     x="14.989474"
     y="20.60351" />
  <path
     d="M 9.1679688,3.7558594 V 43.517578 H 14.990234 V 15.382813 H 27.167969 V 3.7558594 Z"
     style="fill:#ffffff;stroke-width:1.05095"
     id="path50" />
  <path
     d="m 33.853516,43.552734 h 6.314453 v -27 h -6.314453 z"
     style="fill:#ffffff"
     id="path48" />
  <path
     d="m 19.167969,43.517578 h -4.177735 v 0.552734 H 33.853516 V 43.552734 H 19.167969 Z"
     style="fill:#ffffff;stroke-width:1.33333"
     id="path49" />
  <path
     d="m 27.167969,15.382813 v 1.169921 h 6.685547 v -1.169921 z"
     style="fill:#ffffff;stroke-width:1.33333"
     id="path47" />
  <path
     d="m 27.167969,16.552734 v 10.330078 h 2.607422 c 1.385,0 2.5,1.115 2.5,2.5 0,1.385001 -1.115,2.500001 -2.5,2.5 h -2.607422 v 11.634766 h -8 v 0.03516 h 14.685547 v -27 z"
     style="fill:#ffffff;stroke-width:1.33333"
     id="path46" />
  <path
     d="m 27.167969,31.882812 h -0.392578 v 3 c 0,1.385 -1.115,2.5 -2.5,2.5 -1.385,0 -2.5,-1.115 -2.5,-2.5 v -3 h -2.607422 v 11.634766 h 8 z"
     style="fill:#ffffff;stroke-width:1.33333"
     id="path45" />
  <path
     d="M 27.167969,15.382813 H 14.990234 v 28.134765 h 4.177735 V 31.882812 h -0.392578 c -1.385,0 -2.5,-1.114999 -2.5,-2.5 0,-1.385 1.115,-2.5 2.5,-2.5 h 0.392578 V 16.552734 h 8 z"
     style="fill:#ffffff;stroke-width:1.33333"
     id="path44" />
  <path
     d="m 27.167969,16.552734 h -8 v 10.330078 h 2.607422 v -3 c 0,-1.385 1.115,-2.5 2.5,-2.5 1.385,0 2.5,1.115 2.5,2.5 v 3 h 0.392578 z"
     style="fill:#ffffff;stroke-width:1.33333"
     id="path43" />
  <rect
     id="rect50"
     width="13.192983"
     height="3.1438596"
     x="16.336842"
     y="14.764913"
     style="fill:#ffffff;stroke-width:1.11507" />
  <rect
     id="rect50-1"
     width="13.192983"
     height="3.1438596"
     x="16.933332"
     y="38.792984"
     style="fill:#ffffff;stroke-width:1.11507" />
  <rect
     id="rect50-9"
     width="3.3122809"
     height="9.7684212"
     x="16.540352"
     y="17.066666"
     style="fill:#ffffff;stroke-width:0.984861" />
  <rect
     id="rect50-9-1"
     width="7.0175438"
     height="29.585964"
     x="9.2526312"
     y="14.326317"
     style="fill:#ffffff;stroke-width:2.4948" />
  <rect
     id="rect50-9-1-5"
     width="7.0175438"
     height="29.585964"
     x="32.333332"
     y="15.294737"
     style="fill:#ffffff;stroke-width:2.4948" />
  <rect
     id="rect50-9-8"
     width="3.3122809"
     height="9.7684212"
     x="26.961403"
     y="17.031578"
     style="fill:#ffffff;stroke-width:0.984861" />
  <rect
     id="rect50-9-8-2"
     width="3.3122809"
     height="9.7684212"
     x="17.621052"
     y="31.989473"
     style="fill:#ffffff;stroke-width:0.984861" />
  <rect
     id="rect50-9-8-2-5"
     width="3.3122809"
     height="9.7684212"
     x="26.943859"
     y="32.010525"
     style="fill:#ffffff;stroke-width:0.984861" />
</svg>
