<svg width="49" height="48" viewBox="0 0 49 48" fill="none" xmlns="http://www.w3.org/2000/svg">
  <path
    d="
      M26.5 24
      C26.5 23.1716 25.8284 22.5 25 22.5
      C24.1716 22.5 23.5 23.1716 23.5 24V28H19.5
      C18.6716 28 18 28.6716 18 29.5
      C18 30.3284 18.6716 31 19.5 31H23.5V35
      C23.5 35.8284 24.1716 36.5 25 36.5
      C25.8284 36.5 26.5 35.8284 26.5 35V31H30.5
      C31.3284 31 32 30.3284 32 29.5
      C32 28.6716 31.3284 28 30.5 28H26.5V24Z"
    fill="white"
  />

  <path d="M26.542 4H12.2503C11.1674 4 10.1287 4.42143 9.36297 5.17157C8.5972 5.92172 8.16699 6.93913 8.16699 8V40C8.16699 41.0609 8.5972 42.0783 9.36297 42.8284C10.1287 43.5786 11.1674 44 12.2503 44H36.7503C37.8333 44 38.8719 43.5786 39.6377 42.8284C40.4034 42.0783 40.8337 41.0609 40.8337 40V18M26.542 4L40.8337 18M26.542 4V18H40.8337" stroke="white" stroke-width="4" stroke-linecap="round" stroke-linejoin="round"/>
</svg>
