<svg width="49" height="48" viewBox="0 0 49 48" xmlns="http://www.w3.org/2000/svg">
  <!-- Fondo oscuro para que se vea el blanco -->
  <rect width="49" height="48" fill="black"/>

  <!-- Rectángulos blancos sólidos -->


  <!-- Borde original -->
  <path d="M26.542 4H12.2503C11.1674 4 10.1287 4.42143 9.36297 5.17157C8.5972 5.92172 8.16699 6.93913 8.16699 8V40C8.16699 41.0609 8.5972 42.0783 9.36297 42.8284C10.1287 43.5786 11.1674 44 12.2503 44H36.7503C37.8333 44 38.8719 43.5786 39.6377 42.8284C40.4034 42.0783 40.8337 41.0609 40.8337 40V18M26.542 4L40.8337 18M26.542 4V18H40.8337" stroke="white" stroke-width="4" stroke-linecap="round" stroke-linejoin="round"/>
  <mask id="hole">
    <rect width="49" height="48" fill="white"/>
    <path d="M24.5 36 V24 M18.375 30 H30.625" stroke="black" stroke-width="4" stroke-linecap="round"/>
  </mask>

  <path fill="white" d="M10 4 H25 V43 H10 V4 Z M10 17 H39 V44 H10 V17 Z" mask="url(#hole)"/>

</svg>
