<svg width="49" height="48" viewBox="0 0 49 48" fill="none" xmlns="http://www.w3.org/2000/svg">
<path d="M28.5833 4H12.25C11.167 4 10.1284 4.42143 9.36261 5.17157C8.59683 5.92172 8.16663 6.93913 8.16663 8V40C8.16663 41.0609 8.59683 42.0783 9.36261 42.8284C10.1284 43.5786 11.167 44 12.25 44H36.75C37.8329 44 38.8715 43.5786 39.6373 42.8284C40.4031 42.0783 40.8333 41.0609 40.8333 40V16M28.5833 4L40.8333 16M28.5833 4V16H40.8333M24.5 36V24M18.375 30H30.625" stroke="white" stroke-width="4" stroke-linecap="round" stroke-linejoin="round"/>
<rect x="9" y="6" width="18" height="36" fill="white"/>
<rect x="19" y="17" width="21" height="27" fill="white"/>
<rect x="22" y="22" width="5" height="16" rx="2.5" fill="#940202"/>
<rect x="16.5" y="32.5" width="5" height="16" rx="2.5" transform="rotate(-90 16.5 32.5)" fill="#940202"/>
<path d="M30.5 14V8.5L36 14H30.5Z" fill="#940202" stroke="#940202"/>
</svg>
