<svg width="32" height="32" viewBox="0 0 32 32" fill="none" xmlns="http://www.w3.org/2000/svg">
<path d="M18.6666 2.66699H7.99992C7.29267 2.66699 6.6144 2.94794 6.1143 3.44804C5.6142 3.94814 5.33325 4.62641 5.33325 5.33366V26.667C5.33325 27.3742 5.6142 28.0525 6.1143 28.5526C6.6144 29.0527 7.29267 29.3337 7.99992 29.3337H23.9999C24.7072 29.3337 25.3854 29.0527 25.8855 28.5526C26.3856 28.0525 26.6666 27.3742 26.6666 26.667V10.667M18.6666 2.66699L26.6666 10.667M18.6666 2.66699L18.6666 10.667H26.6666M21.3333 17.3337H10.6666M21.3333 22.667H10.6666M13.3333 12.0003H10.6666" stroke="#940202" stroke-width="3" stroke-linecap="round" stroke-linejoin="round"/>
</svg>
